<?xml version="1.0" encoding="UTF-8"?>
<svg version="1.1" xmlns="http://www.w3.org/2000/svg" width="70" height="70">
<path d="M0 0 C9.88869366 5.81586346 16.18371269 13.07946401 19.23828125 24.31640625 C20.38735482 37.08982869 18.61354015 47.16824221 10.296875 57.2734375 C3.21022892 64.30629499 -5.61611128 67.71862775 -15.51171875 67.69140625 C-26.47606606 67.63253223 -34.98655606 64.15103481 -42.76171875 56.31640625 C-50.24991451 46.1985229 -51.71146652 36.5669503 -50.76171875 24.31640625 C-48.94192176 16.08918036 -44.07411436 8.50798906 -37.296875 3.4921875 C-26.19180869 -3.40464315 -12.20554198 -5.88737907 0 0 Z " fill="#EB794E" transform="translate(50.76171875,2.68359375)"/>
<path d="M0 0 C1.37478516 0.01740234 1.37478516 0.01740234 2.77734375 0.03515625 C3.69644531 0.04417969 4.61554687 0.05320312 5.5625 0.0625 C6.27277344 0.07410156 6.98304687 0.08570312 7.71484375 0.09765625 C9.32546294 4.17157537 10.19424464 6.88705371 8.71484375 11.09765625 C7.15234375 12.91015625 7.15234375 12.91015625 5.71484375 14.09765625 C7.11555868 19.38924599 10.5697162 21.87243669 14.71484375 25.09765625 C15.35421875 24.41703125 15.99359375 23.73640625 16.65234375 23.03515625 C20.49900134 20.60155655 22.46962032 20.9845514 26.82421875 21.640625 C28.71484375 22.09765625 28.71484375 22.09765625 29.71484375 23.09765625 C29.81274945 24.59503749 29.84459239 26.09708517 29.83984375 27.59765625 C29.84371094 28.8196875 29.84371094 28.8196875 29.84765625 30.06640625 C29.71484375 32.09765625 29.71484375 32.09765625 28.71484375 33.09765625 C21.45996327 34.22619321 15.77744691 30.8291226 9.71484375 27.09765625 C2.72579165 21.74354312 -1.03952429 14.51877609 -3.28515625 6.09765625 C-3.47265625 3.28515625 -3.47265625 3.28515625 -3.28515625 1.09765625 C-2.28515625 0.09765625 -2.28515625 0.09765625 0 0 Z " fill="#FDF5F1" transform="translate(20.28515625,19.90234375)"/>
<path d="M0 0 C2.475 0.495 2.475 0.495 5 1 C4.67 2.65 4.34 4.3 4 6 C3.01 6.33 2.02 6.66 1 7 C0.67 4.69 0.34 2.38 0 0 Z " fill="#F2906C" transform="translate(21,24)"/>
<path d="M0 0 C1.65 0 3.3 0 5 0 C5 1.32 5 2.64 5 4 C3.35 4 1.7 4 0 4 C0 2.68 0 1.36 0 0 Z " fill="#E67D56" transform="translate(41,45)"/>
</svg>
